<svg xmlns="http://www.w3.org/2000/svg" xmlns:xlink="http://www.w3.org/1999/xlink" width="500" zoomAndPan="magnify" viewBox="0 0 375 374.999991" height="500" preserveAspectRatio="xMidYMid meet" version="1.0"><defs><g/></defs><g fill="#d4357d" fill-opacity="1"><g transform="translate(7.891302, 286.152912)"><g><path d="M 169.265625 -6.234375 C 169.265625 -2.265625 160.394531 -0.28125 142.65625 -0.28125 C 124.914062 -0.28125 115.289062 -1.695312 113.78125 -4.53125 L 66.515625 -92.84375 L 66.515625 -4.8125 C 66.515625 -1.414062 57.785156 0.28125 40.328125 0.28125 C 22.878906 0.28125 14.15625 -1.414062 14.15625 -4.8125 L 14.15625 -194.171875 C 14.15625 -197.003906 21.609375 -198.421875 36.515625 -198.421875 C 42.359375 -198.421875 49.195312 -197.898438 57.03125 -196.859375 C 64.863281 -195.816406 69.628906 -193.882812 71.328125 -191.0625 L 116.609375 -103.875 L 116.609375 -192.75 C 116.609375 -196.34375 125.382812 -198.140625 142.9375 -198.140625 C 160.488281 -198.140625 169.265625 -196.34375 169.265625 -192.75 Z M 169.265625 -6.234375 "/></g></g></g><g fill="#d4357d" fill-opacity="1"><g transform="translate(191.310055, 286.152912)"><g><path d="M 118.875 -59.15625 L 119.453125 -97.65625 C 119.453125 -100.289062 122.1875 -102.03125 127.65625 -102.875 C 133.125 -103.726562 137.648438 -104.15625 141.234375 -104.15625 L 152.28125 -103.3125 C 159.445312 -102.175781 163.03125 -100.195312 163.03125 -97.375 L 161.90625 -8.78125 C 158.125 -6.132812 150.523438 -3.535156 139.109375 -0.984375 C 127.703125 1.554688 114.640625 2.828125 99.921875 2.828125 C 72.554688 2.828125 50.472656 -6.035156 33.671875 -23.765625 C 16.878906 -41.503906 8.484375 -67.546875 8.484375 -101.890625 C 8.484375 -131.140625 16.691406 -154.914062 33.109375 -173.21875 C 49.523438 -191.53125 72.265625 -200.6875 101.328125 -200.6875 C 114.535156 -200.6875 126.46875 -199.410156 137.125 -196.859375 C 147.789062 -194.304688 155.109375 -190.863281 159.078125 -186.53125 C 159.265625 -185.019531 159.359375 -182.1875 159.359375 -178.03125 C 159.359375 -173.882812 157.941406 -167.988281 155.109375 -160.34375 C 152.273438 -152.695312 149.066406 -146.988281 145.484375 -143.21875 C 141.898438 -139.445312 139.304688 -137.5625 137.703125 -137.5625 C 136.097656 -137.5625 134.398438 -138.269531 132.609375 -139.6875 C 130.816406 -141.101562 127.273438 -142.613281 121.984375 -144.21875 C 116.703125 -145.820312 111.609375 -146.625 106.703125 -146.625 C 95.003906 -146.625 85.519531 -142.847656 78.25 -135.296875 C 70.988281 -127.742188 67.359375 -116.039062 67.359375 -100.1875 C 67.359375 -84.34375 71.082031 -72.316406 78.53125 -64.109375 C 85.988281 -55.898438 94.578125 -51.796875 104.296875 -51.796875 C 114.015625 -51.796875 118.875 -54.25 118.875 -59.15625 Z M 118.875 -59.15625 "/></g></g></g></svg>