<svg xmlns="http://www.w3.org/2000/svg" xmlns:xlink="http://www.w3.org/1999/xlink" width="500" zoomAndPan="magnify" viewBox="0 0 375 374.999991" height="500" preserveAspectRatio="xMidYMid meet" version="1.0"><defs><g/></defs><g fill="#d4357d" fill-opacity="1"><g transform="translate(0.0000045, 294.946219)"><g><path d="M 16.1875 -198.734375 C 19.382812 -198.734375 22.25 -198.648438 24.78125 -198.484375 C 27.3125 -198.316406 30.847656 -198.019531 35.390625 -197.59375 C 39.941406 -197.175781 44.328125 -196.96875 48.546875 -196.96875 C 53.265625 -196.96875 57.726562 -197.257812 61.9375 -197.84375 C 66.15625 -198.4375 69.191406 -198.734375 71.046875 -198.734375 C 73.742188 -198.734375 76.019531 -197.632812 77.875 -195.4375 C 79.726562 -193.25 81.664062 -190.132812 83.6875 -186.09375 L 121.625 -112.265625 C 123.644531 -108.210938 125.664062 -106.1875 127.6875 -106.1875 C 129.707031 -106.1875 130.71875 -107.789062 130.71875 -111 C 130.71875 -112.34375 130.632812 -113.726562 130.46875 -115.15625 C 130.300781 -116.59375 130.21875 -117.988281 130.21875 -119.34375 L 130.21875 -164.34375 C 130.21875 -169.90625 129.835938 -173.992188 129.078125 -176.609375 C 128.316406 -179.222656 127.347656 -181.539062 126.171875 -183.5625 C 125.660156 -184.40625 125.191406 -185.375 124.765625 -186.46875 C 124.347656 -187.5625 124.140625 -188.867188 124.140625 -190.390625 C 124.140625 -192.578125 124.898438 -194.515625 126.421875 -196.203125 C 127.941406 -197.890625 129.960938 -198.734375 132.484375 -198.734375 C 145.804688 -197.554688 153.898438 -196.96875 156.765625 -196.96875 C 160.128906 -196.96875 164.046875 -197.257812 168.515625 -197.84375 C 172.984375 -198.4375 176.648438 -198.734375 179.515625 -198.734375 C 182.046875 -198.734375 184.109375 -197.929688 185.703125 -196.328125 C 187.304688 -194.734375 188.109375 -192.753906 188.109375 -190.390625 C 188.109375 -188.867188 187.898438 -187.5625 187.484375 -186.46875 C 187.066406 -185.375 186.519531 -184.320312 185.84375 -183.3125 C 184.664062 -181.125 183.738281 -178.972656 183.0625 -176.859375 C 182.382812 -174.753906 182.046875 -171.507812 182.046875 -167.125 L 182.046875 -27.3125 C 182.046875 -23.9375 182.382812 -21.28125 183.0625 -19.34375 C 183.738281 -17.40625 184.664062 -15.59375 185.84375 -13.90625 C 187.351562 -11.539062 188.109375 -9.179688 188.109375 -6.828125 C 188.109375 -4.640625 187.347656 -2.660156 185.828125 -0.890625 C 184.316406 0.878906 182.046875 1.765625 179.015625 1.765625 C 176.316406 1.765625 173.867188 1.679688 171.671875 1.515625 C 169.484375 1.347656 166.492188 1.050781 162.703125 0.625 C 158.910156 0.207031 155.078125 0 151.203125 0 C 147.828125 0 138.976562 0.585938 124.65625 1.765625 C 122.457031 1.765625 120.347656 0.96875 118.328125 -0.625 C 116.304688 -2.226562 114.203125 -5.222656 112.015625 -9.609375 L 73.578125 -85.203125 C 72.398438 -87.734375 71.429688 -89.335938 70.671875 -90.015625 C 69.910156 -90.691406 68.859375 -91.03125 67.515625 -91.03125 C 65.660156 -91.03125 64.734375 -89.765625 64.734375 -87.234375 L 64.734375 -28.828125 C 64.734375 -25.117188 65.066406 -22.296875 65.734375 -20.359375 C 66.410156 -18.421875 67.335938 -16.351562 68.515625 -14.15625 C 70.203125 -11.457031 71.046875 -9.015625 71.046875 -6.828125 C 71.046875 -4.296875 70.242188 -2.226562 68.640625 -0.625 C 67.046875 0.96875 64.816406 1.765625 61.953125 1.765625 C 54.867188 1.097656 49.597656 0.632812 46.140625 0.375 C 42.679688 0.125 39.859375 0 37.671875 0 C 35.648438 0 31.476562 0.289062 25.15625 0.875 C 18.832031 1.46875 15.753906 1.765625 15.921875 1.765625 C 13.398438 1.765625 11.335938 0.96875 9.734375 -0.625 C 8.128906 -2.226562 7.328125 -4.378906 7.328125 -7.078125 C 7.328125 -9.265625 8.085938 -11.457031 9.609375 -13.65625 C 10.953125 -15.675781 11.960938 -17.78125 12.640625 -19.96875 C 13.316406 -22.164062 13.65625 -25.453125 13.65625 -29.828125 L 13.65625 -167.890625 C 13.65625 -171.765625 13.316406 -174.753906 12.640625 -176.859375 C 11.960938 -178.972656 11.035156 -180.867188 9.859375 -182.546875 C 9.015625 -183.898438 8.378906 -185.082031 7.953125 -186.09375 C 7.535156 -187.101562 7.328125 -188.535156 7.328125 -190.390625 C 7.328125 -192.921875 8.128906 -194.941406 9.734375 -196.453125 C 11.335938 -197.972656 13.488281 -198.734375 16.1875 -198.734375 Z M 16.1875 -198.734375 "/></g></g></g><g fill="#d4357d" fill-opacity="1"><g transform="translate(195.44128, 294.946219)"><g><path d="M 96.84375 -202.015625 C 102.738281 -202.015625 108.34375 -201.59375 113.65625 -200.75 C 118.96875 -199.914062 125.160156 -198.738281 132.234375 -197.21875 C 137.296875 -196.207031 139.992188 -195.703125 140.328125 -195.703125 C 141.503906 -195.703125 142.554688 -196.125 143.484375 -196.96875 C 144.410156 -197.8125 145.421875 -198.566406 146.515625 -199.234375 C 147.617188 -199.910156 149.179688 -200.25 151.203125 -200.25 C 155.753906 -200.25 158.742188 -199.066406 160.171875 -196.703125 C 161.609375 -194.347656 162.328125 -190.894531 162.328125 -186.34375 C 162.328125 -176.0625 164.519531 -163.503906 168.90625 -148.671875 C 169.570312 -146.648438 170.203125 -144.289062 170.796875 -141.59375 C 171.390625 -138.894531 171.6875 -137.125 171.6875 -136.28125 C 171.6875 -134.09375 170.800781 -132.15625 169.03125 -130.46875 C 167.257812 -128.78125 165.191406 -127.9375 162.828125 -127.9375 C 159.796875 -127.9375 154.148438 -129.707031 145.890625 -133.25 C 138.304688 -136.445312 131.394531 -138.972656 125.15625 -140.828125 C 118.914062 -142.679688 112.507812 -143.609375 105.9375 -143.609375 C 93.632812 -143.609375 84.570312 -139.859375 78.75 -132.359375 C 72.9375 -124.859375 70.03125 -113.351562 70.03125 -97.84375 C 70.03125 -83.1875 72.050781 -72.359375 76.09375 -65.359375 C 80.144531 -58.359375 86.640625 -54.859375 95.578125 -54.859375 C 100.628906 -54.859375 104.96875 -56.585938 108.59375 -60.046875 C 112.21875 -63.503906 114.03125 -68.859375 114.03125 -76.109375 C 114.03125 -81.671875 113.1875 -85.753906 111.5 -88.359375 C 109.8125 -90.972656 106.78125 -93.207031 102.40625 -95.0625 C 100.382812 -95.90625 98.910156 -97.085938 97.984375 -98.609375 C 97.054688 -100.128906 96.59375 -101.5625 96.59375 -102.90625 C 96.59375 -106.445312 97.519531 -108.847656 99.375 -110.109375 C 101.226562 -111.378906 104.09375 -112.015625 107.96875 -112.015625 L 160.5625 -112.015625 C 164.4375 -112.015625 167.171875 -111.335938 168.765625 -109.984375 C 170.367188 -108.640625 171.171875 -106.363281 171.171875 -103.15625 C 171.171875 -99.28125 170.832031 -89.503906 170.15625 -73.828125 C 170.15625 -62.703125 170.363281 -54.144531 170.78125 -48.15625 C 171.207031 -42.175781 171.757812 -35.5625 172.4375 -28.3125 C 172.945312 -25.113281 173.203125 -22.503906 173.203125 -20.484375 C 173.203125 -15.421875 168.816406 -10.953125 160.046875 -7.078125 C 151.285156 -3.203125 141.046875 -0.253906 129.328125 1.765625 C 117.609375 3.785156 107.875 4.796875 100.125 4.796875 C 68.769531 4.796875 45.039062 -4.175781 28.9375 -22.125 C 12.84375 -40.070312 4.796875 -65.144531 4.796875 -97.34375 C 4.796875 -113.53125 7.03125 -128.578125 11.5 -142.484375 C 15.96875 -156.390625 23.257812 -168.0625 33.375 -177.5 C 43.320312 -186.601562 53.394531 -192.960938 63.59375 -196.578125 C 73.789062 -200.203125 84.875 -202.015625 96.84375 -202.015625 Z M 96.84375 -202.015625 "/></g></g></g></svg>