<svg width="723" height="210" viewBox="0 0 723 210" fill="none" xmlns="http://www.w3.org/2000/svg">
<path fill-rule="evenodd" clip-rule="evenodd" d="M108.275 5.05078C88.4955 5.04594 69.1591 10.9068 52.711 21.892C36.2629 32.8771 23.4418 48.4933 15.8693 66.7655C8.29676 85.0377 6.31272 105.145 10.1685 124.545C14.0242 143.944 23.5464 161.765 37.5307 175.753C51.515 189.74 69.3333 199.267 88.732 203.127C108.131 206.988 128.239 205.009 146.513 197.441C164.787 189.873 180.406 177.056 191.395 160.61C202.385 144.165 208.25 124.83 208.25 105.051C208.224 78.5414 197.684 53.1247 178.941 34.3774C160.198 15.6301 134.784 5.0832 108.275 5.05078ZM108.275 186.682C92.1236 186.682 76.3353 181.892 62.9065 172.919C49.4778 163.945 39.0119 151.191 32.8323 136.269C26.6528 121.347 25.0369 104.927 28.1896 89.087C31.3423 73.2467 39.1219 58.6971 50.544 47.2783C61.9662 35.8596 76.5182 28.0846 92.3595 24.9367C108.201 21.7888 124.619 23.4092 139.54 29.5933C154.46 35.7774 167.211 46.2472 176.181 59.6787C185.15 73.1101 189.935 88.8998 189.93 105.051C189.924 126.71 181.32 147.48 166.01 162.8C150.699 178.12 129.934 186.736 108.275 186.755V186.682ZM606.495 20.4386C604.079 20.528 601.742 21.2981 599.773 22.6538C597.804 24.0095 596.289 25.8916 595.415 28.0685C594.54 30.2453 594.344 32.6216 594.85 34.9048C595.357 37.188 596.544 39.2782 598.265 40.918C599.987 42.5578 602.167 43.6756 604.538 44.1337C606.909 44.5917 609.368 44.37 611.61 43.4958C613.852 42.6217 615.781 41.1332 617.158 39.2139C618.535 37.2946 619.301 35.0282 619.361 32.694C619.381 31.0649 619.061 29.4485 618.419 27.9416C617.778 26.4347 616.828 25.0683 615.627 23.9241C614.426 22.7799 612.998 21.8815 611.429 21.2826C609.86 20.6837 608.182 20.3966 606.495 20.4386ZM320.216 104.269C320.216 78.6478 338.07 59.751 364.25 59.751C387.949 59.751 405.459 77.0772 405.68 102.87C405.721 105.116 405.54 107.36 405.14 109.57H340.256C342.024 121.423 350.153 130.602 365.355 130.602C373.508 130.602 379.329 127.951 382.349 122.847H404.084C399.172 138.21 383.872 148.64 364.79 148.64C338.07 148.64 320.216 129.031 320.216 104.269ZM364.25 77.0772C350.644 77.0772 342.859 85.544 340.55 97.0293H384.953C383.528 84.6605 376.112 77.0772 364.25 77.0772ZM274.609 94.6197L290.106 97.0596C302.768 99.3532 314.917 104.965 315.088 121.24C315.088 138.881 299.371 148.641 278.422 148.641C259.429 148.641 241.83 140.735 239.874 117.897L258.525 118.068C260.309 127.901 267.691 132.122 278.96 132.122C288.811 132.122 295.679 128.609 295.679 122.997C295.679 118.605 292.16 115.433 285.633 114.213L267.52 111.211C254.834 108.918 242.881 102.428 242.881 87.3242C242.881 70.6348 257.131 60.6064 277.909 60.6064C292.037 60.6064 312.619 65.5352 314.574 88.2025L295.728 88.3734C294.897 79.8578 287.271 76.1735 277.787 76.1735C267.911 76.1735 262.827 80.2482 262.827 85.1281C262.827 89.1785 265.638 93.0337 274.609 94.6197ZM498.349 63.1699H472.317L435.46 100.85V63.1699H415.088V146.076H435.46V127.504L450.518 112.071L476.549 146.076H503.122L464.69 97.5153L498.349 63.1699ZM596.284 63.1699H615.942V146.076H596.284V63.1699ZM694.761 68.3679V62.5474H715.088V145.845H694.761V140.024C687.258 145.248 678.283 147.963 669.131 147.777C645.785 147.777 627.053 128.554 627.053 104.27C627.053 79.9846 645.785 60.6154 669.131 60.6154C678.283 60.4297 687.258 63.1444 694.761 68.3679ZM685.004 127.247C688.97 125.182 692.332 122.127 694.761 118.381V90.0116C692.337 86.2606 688.977 83.2017 685.009 81.1352C681.04 79.0686 676.601 78.0653 672.126 78.2237C657.814 78.2237 647.38 90.5985 647.38 104.27C647.38 117.94 657.814 130.169 672.126 130.169C676.6 130.32 681.037 129.313 685.004 127.247ZM541.156 60.6055C532.45 60.6055 523.94 63.212 516.701 68.0957C509.463 72.9793 503.821 79.9206 500.489 88.0417C497.158 96.1629 496.286 105.099 497.985 113.721C499.683 122.342 503.875 130.261 510.031 136.477C516.187 142.692 524.03 146.925 532.569 148.64C541.107 150.355 549.958 149.475 558.001 146.111C566.044 142.747 572.918 137.051 577.755 129.742C582.592 122.433 585.173 113.84 585.173 105.05C585.173 93.2625 580.536 81.9579 572.281 73.6229C564.026 65.288 552.83 60.6055 541.156 60.6055ZM541.156 131.113C536.051 131.113 531.06 129.584 526.815 126.72C522.571 123.857 519.262 119.786 517.309 115.024C515.355 110.261 514.844 105.021 515.84 99.9652C516.836 94.9095 519.294 90.2656 522.904 86.6206C526.514 82.9757 531.113 80.4933 536.12 79.4877C541.128 78.482 546.317 78.9982 551.034 80.9708C555.751 82.9435 559.782 86.2841 562.618 90.5701C565.454 94.8561 566.968 99.8951 566.968 105.05C566.968 111.962 564.249 118.591 559.408 123.479C554.567 128.367 548.002 131.113 541.156 131.113ZM103.216 67.2422C110.525 62.3586 119.118 59.752 127.908 59.752C139.696 59.752 151 64.4345 159.335 72.7694C167.67 81.1044 172.353 92.409 172.353 104.196C172.353 112.987 169.746 121.579 164.862 128.888C159.979 136.197 153.038 141.894 144.917 145.258C136.795 148.622 127.859 149.502 119.238 147.787C110.616 146.072 102.697 141.839 96.4816 135.623C90.2659 129.408 86.0327 121.488 84.3178 112.867C82.6029 104.246 83.4833 95.3094 86.8472 87.1882C90.211 79.0671 95.9075 72.1258 103.216 67.2422ZM113.429 125.867C117.715 128.731 122.754 130.259 127.908 130.259C134.819 130.253 141.444 127.505 146.331 122.618C151.217 117.732 153.965 111.107 153.971 104.196C153.971 99.0416 152.443 94.0026 149.579 89.7166C146.715 85.4306 142.645 82.09 137.882 80.1174C133.12 78.1447 127.879 77.6286 122.824 78.6342C117.768 79.6399 113.124 82.1221 109.479 85.7671C105.834 89.4121 103.352 94.0561 102.346 99.1118C101.341 104.167 101.857 109.408 103.829 114.17C105.802 118.933 109.143 123.003 113.429 125.867ZM54.4039 68.2988H74.0621V140.948H54.4039V68.2988Z" fill="#0A083B"/>
</svg>
